<svg width="15" height="15" viewBox="0 0 15 15" fill="none" xmlns="http://www.w3.org/2000/svg">
<path d="M10.015 8.812H9.379L9.159 8.593C9.94 7.682 10.415 6.501 10.415 5.207C10.415 2.331 8.083 0 5.208 0C2.332 0 0 2.331 0 5.207C0 8.083 2.331 10.415 5.208 10.415C6.501 10.415 7.682 9.941 8.593 9.16L8.814 9.38V10.015L12.818 14.014L14.012 12.819L10.015 8.812ZM5.207 8.812C3.216 8.812 1.602 7.198 1.602 5.207C1.602 3.216 3.216 1.602 5.207 1.602C7.198 1.602 8.812 3.216 8.812 5.207C8.812 7.198 7.198 8.812 5.207 8.812Z" fill="#849199"/>
</svg>
